<svg data-v-24094ef2="" viewBox="0 0 19 20" fill="none" xmlns="http://www.w3.org/2000/svg" class="@w-[20] @h-[20]"><path d="M4.5 9H6.5V11H4.5V9ZM4.5 13H6.5V15H4.5V13ZM8.5 9H10.5V11H8.5V9ZM8.5 13H10.5V15H8.5V13ZM12.5 9H14.5V11H12.5V9ZM12.5 13H14.5V15H12.5V13Z" fill="rgba(244, 239, 231, 1)"/><path d="M2.5 20H16.5C17.603 20 18.5 19.103 18.5 18V4C18.5 2.897 17.603 2 16.5 2H14.5V0H12.5V2H6.5V0H4.5V2H2.5C1.397 2 0.5 2.897 0.5 4V18C0.5 19.103 1.397 20 2.5 20ZM16.5 6L16.501 18H2.5V6H16.5Z" fill="rgba(244, 239, 231, 1)"/></svg>